<svg id="svg" version="1.1" xmlns="http://www.w3.org/2000/svg" style="display: block;" viewBox="0 0 431 579"><path d="M0 0 C142.23 0 284.46 0 431 0 C431 191.07 431 382.14 431 579 C288.77 579 146.54 579 0 579 C0 387.93 0 196.86 0 0 Z " transform="translate(0,0)" style="fill: #000000;"/><path d="M0 0 C4.37596799 2.72137313 7.52725198 6.22974242 11 10 C12.63710775 11.38975658 14.30333097 12.74611885 16 14.0625 C16.81597656 14.70574219 17.63195312 15.34898437 18.47265625 16.01171875 C19.72369141 16.99591797 19.72369141 16.99591797 21 18 C26.6962107 22.55199371 32.25913235 27.1857076 37.625 32.125 C41.44718689 35.63990248 45.34759763 38.88718724 49.484375 42.01953125 C53.39566311 45.09875962 57.1276149 48.38323417 60.88647461 51.64550781 C64.12868018 54.44472599 67.40058546 57.11330068 70.875 59.625 C71.90625 60.40875 72.9375 61.1925 74 62 C74 62.66 74 63.32 74 64 C74.52980469 64.22042969 75.05960937 64.44085938 75.60546875 64.66796875 C78.85692275 66.47668949 81.52432615 68.87671978 84.3125 71.3125 C87.88120537 74.39476846 91.40790283 77.40609373 95.3125 80.0625 C96.199375 80.701875 97.08625 81.34125 98 82 C98 82.66 98 83.32 98 84 C98.5259375 84.2165625 99.051875 84.433125 99.59375 84.65625 C102.92393481 86.5159636 105.6497568 88.99367755 108.5 91.5 C109.75593245 92.59050975 111.01245264 93.68034294 112.26953125 94.76953125 C112.89682129 95.31432129 113.52411133 95.85911133 114.17041016 96.42041016 C118.72176936 100.34985959 123.36711741 104.16739942 128 108 C129.00675781 108.84175781 130.01351562 109.68351562 131.05078125 110.55078125 C132.02402344 111.35902344 132.99726563 112.16726563 134 113 C134.86625 113.721875 135.7325 114.44375 136.625 115.1875 C138.70331244 116.77358055 140.6203077 117.94235898 143 119 C143.86882812 118.25234375 144.73765625 117.5046875 145.6328125 116.734375 C146.79672979 115.73941344 147.96080049 114.74463132 149.125 113.75 C149.97964844 113.01330078 149.97964844 113.01330078 150.8515625 112.26171875 C153.53706301 109.97293991 156.1603156 107.89473011 159.1171875 105.953125 C162.15202368 103.89700293 164.44532922 101.62169146 167 99 C169.12822465 97.09970222 171.3116082 95.2679298 173.5 93.4375 C174.05558594 92.96892578 174.61117187 92.50035156 175.18359375 92.01757812 C176.7836032 90.67168782 178.39122305 89.33538669 180 88 C180.9178125 87.22785156 181.835625 86.45570313 182.78125 85.66015625 C185 84 185 84 187 84 C187 83.34 187 82.68 187 82 C188.765625 80.40625 188.765625 80.40625 191.25 78.5 C194.29887977 76.13058486 197.32275749 73.74951736 200.265625 71.25 C200.80413086 70.79302734 201.34263672 70.33605469 201.89746094 69.86523438 C203.44392958 68.54776749 204.9876429 67.22706845 206.53125 65.90625 C209 64 209 64 211 64 C211 63.34 211 62.68 211 62 C212.51171875 60.66015625 212.51171875 60.66015625 214.6875 59.0625 C219.52601363 55.42591014 224.10538611 51.54235892 228.65698242 47.55688477 C232.78336665 44 232.78336665 44 235 44 C235 43.34 235 42.68 235 42 C236.51171875 40.66015625 236.51171875 40.66015625 238.6875 39.0625 C243.52601363 35.42591014 248.10538611 31.54235892 252.65698242 27.55688477 C256.78336665 24 256.78336665 24 259 24 C259 23.34 259 22.68 259 22 C260.4765625 20.6953125 260.4765625 20.6953125 262.625 19.125 C267.61559108 15.37612492 272.29672843 11.33158958 276.94970703 7.17626953 C284.1386134 0.88214605 289.75982073 -0.62134965 299.3515625 -0.4140625 C304.16273266 0.13195895 307.72019842 1.36516836 311 5 C313.8119784 9.67404992 314.43076404 13.55366367 314.38095093 18.90101624 C314.3856309 19.6784899 314.39031087 20.45596357 314.39513266 21.25699705 C314.40706352 23.85257775 314.39763309 26.44762861 314.38818359 29.04321289 C314.39225011 30.90788582 314.39759244 32.77255633 314.40411377 34.63722229 C314.41778264 39.69495282 314.4124907 44.75249964 314.40297651 49.81023335 C314.39537886 55.10367276 314.40242572 60.39709648 314.40713501 65.6905365 C314.41259177 74.57863183 314.40540252 83.46665236 314.39111328 92.35473633 C314.37478193 102.63175257 314.38007915 112.90859032 314.3965925 123.18560225 C314.41020363 132.00952307 314.412129 140.83339013 314.40427649 149.65731806 C314.39959858 154.92741379 314.39897851 160.1974256 314.40888596 165.46751595 C314.41754806 170.42107825 314.41154749 175.37441021 314.39420319 180.32794762 C314.39023452 182.14642581 314.39137887 183.96492336 314.39799118 185.78339386 C314.40618168 188.26451394 314.39591567 190.74489452 314.38095093 193.22596741 C314.38764309 193.94659066 314.39433526 194.66721391 314.40123022 195.40967423 C314.33571728 201.00443989 312.76527241 204.06389478 309.0625 208.125 C298.73716202 214.4466355 285.93418449 214.00931885 274.44921875 211.69921875 C270.95015479 210.70028342 268.80482085 209.3139772 266 207 C265.46166125 206.5709093 264.92332251 206.1418186 264.36867046 205.69972515 C262.4687344 203.34023162 262.61589277 201.75073178 262.60127258 198.74189758 C262.58246536 197.10757278 262.58246536 197.10757278 262.5632782 195.44023132 C262.56543083 193.64704216 262.56543083 193.64704216 262.56762695 191.81762695 C262.5574353 190.55897827 262.54724365 189.30032959 262.53674316 188.00354004 C262.50912686 184.5513256 262.49988247 181.09927587 262.49388909 177.64696527 C262.48451737 174.03941312 262.45831503 170.4319846 262.43388367 166.82450867 C262.39018173 159.99289295 262.36165754 153.16130117 262.33856028 146.32958812 C262.31152834 138.5520865 262.26761566 130.77470903 262.22227156 122.99729598 C262.12937243 106.99826108 262.05771591 90.99920283 262 75 C261.18088135 75.75200684 260.3617627 76.50401367 259.51782227 77.27880859 C258.42986355 78.27703271 257.3418908 79.27524154 256.25390625 80.2734375 C255.44644958 81.01484985 255.44644958 81.01484985 254.62268066 81.77124023 C248.82311364 87.09101082 242.9426968 92.24977664 236.8125 97.1875 C230.77746113 102.09096909 225.12721259 107.36383384 219.44238281 112.66210938 C214.49789331 117.24839957 209.45361406 121.53405989 203.95703125 125.4453125 C201.43749508 127.4468602 199.25926891 129.70996948 197 132 C189.09215582 139.43977864 180.83800196 146.39418186 172.31640625 153.1171875 C169.94094872 154.97317259 169.94094872 154.97317259 167.8125 157.25 C159.88589732 165.00045596 152.25243369 170.83025263 141.125 172.625 C135.33618796 172.31657969 129.72488238 169.16930572 125 166 C124.30183175 164.68288827 123.63130186 163.35043703 123 162 C121.67976628 161.30775356 120.34350779 160.64591721 119 160 C117.03198048 158.30469176 115.13395544 156.59572675 113.25 154.8125 C112.17373951 153.81059341 111.09691667 152.80929056 110.01953125 151.80859375 C109.49955566 151.32374512 108.97958008 150.83889648 108.44384766 150.33935547 C102.71883194 145.02866283 96.70404933 140.09412928 90.61328125 135.2109375 C87.92103989 132.93319668 85.47733588 130.50830258 83 128 C77.44136494 122.8318819 71.78393205 117.77425989 66.05078125 112.80078125 C62.69347565 109.85274719 59.40054917 106.8333189 56.1015625 103.8203125 C54.13276579 101.96323333 54.13276579 101.96323333 52 101 C52 100.34 52 99.68 52 99 C51.45859375 98.77699219 50.9171875 98.55398438 50.359375 98.32421875 C47.25023196 96.57918648 44.82155227 94.24679388 42.25 91.8125 C41.18419294 90.81966888 40.11778533 89.82748206 39.05078125 88.8359375 C38.53209473 88.3522168 38.0134082 87.86849609 37.47900391 87.37011719 C35.49145801 85.52889771 33.47197841 83.72663315 31.4375 81.9375 C30.83808594 81.41027344 30.23867187 80.88304687 29.62109375 80.33984375 C27.82845565 78.8116003 27.82845565 78.8116003 25 77 C25.00129882 77.63868578 25.00259764 78.27737156 25.00393581 78.93541145 C25.03315286 94.4848441 25.02376072 110.03370354 24.97153378 125.5830555 C24.94720542 133.10269686 24.93588701 140.62193545 24.95532227 148.14160156 C24.97223144 154.69673012 24.96460144 161.25129527 24.92765242 167.80634964 C24.90894467 171.27659514 24.9024254 174.7458881 24.92530632 178.2161293 C24.95040594 182.09266826 24.92071202 185.96774706 24.88647461 189.84423828 C24.9022908 190.99150894 24.91810699 192.1387796 24.93440247 193.32081604 C24.80547601 200.89778261 24.80547601 200.89778261 22.52542305 204.01781845 C14.00923206 211.60969935 2.96274808 212.60988863 -8 212 C-16.5733371 210.80435235 -23.63601321 207.9094163 -30 202 C-31.47605238 199.04789524 -31.14441792 196.05781142 -31.14044189 192.82124329 C-31.14341302 192.07309976 -31.14638414 191.32495624 -31.1494453 190.5541417 C-31.15815362 188.03388603 -31.15964235 185.51367775 -31.16113281 182.9934082 C-31.16575957 181.19168496 -31.17078404 179.38996269 -31.17617798 177.58824158 C-31.18931985 172.68308813 -31.1957507 167.77794839 -31.20018864 162.87278008 C-31.20311718 159.80896014 -31.20722163 156.74514396 -31.21169281 153.68132591 C-31.22537398 144.09770166 -31.23503695 134.51408599 -31.2388947 124.93045264 C-31.24337366 113.86375964 -31.26091144 102.79719026 -31.2898953 91.73053485 C-31.31151212 83.18013484 -31.32159903 74.6297696 -31.32293582 66.07934254 C-31.32398407 60.97118997 -31.32989598 55.86315351 -31.34775543 50.75502968 C-31.36423553 45.94763559 -31.36639188 41.14044488 -31.35761642 36.33303261 C-31.35684595 34.57021541 -31.36119012 32.80738728 -31.37107468 31.04459763 C-31.38379657 28.63404853 -31.37791632 26.22421941 -31.36749268 23.81367493 C-31.37554908 23.11949457 -31.38360548 22.42531421 -31.39190602 21.71009809 C-31.33372914 15.93951427 -29.88689652 11.45475401 -26.3515625 6.85546875 C-25.49691406 6.02982422 -25.49691406 6.02982422 -24.625 5.1875 C-24.06039062 4.62417969 -23.49578125 4.06085938 -22.9140625 3.48046875 C-16.74485639 -1.29122332 -7.44224958 -1.78111435 0 0 Z " transform="translate(77,333)" style="fill: #8383FF;"/><path d="M0 0 C0.79317627 0.00563965 1.58635254 0.0112793 2.40356445 0.01708984 C11.41612998 0.20341041 18.15974198 1.66800846 24.91015625 7.91015625 C28.02115257 11.32559258 27.32322671 15.25075834 27.30775452 19.60134888 C27.30860894 20.46877083 27.30946337 21.33619278 27.31034368 22.22990024 C27.31199845 25.15345021 27.30647714 28.07694354 27.30102539 31.00048828 C27.30074349 33.08942666 27.3009013 35.17836514 27.3014679 37.26730347 C27.30175577 42.95296274 27.29586069 48.63860108 27.28889394 54.32425547 C27.28265869 60.26067404 27.28205647 66.19709306 27.28086853 72.1335144 C27.27775572 83.38156366 27.26954301 94.62960324 27.25951904 105.87764823 C27.24835635 118.6803518 27.24284706 131.48305581 27.23782361 144.28576303 C27.22736036 170.62801406 27.20976188 196.97025649 27.1875 223.3125 C27.78615706 223.31098112 28.38481412 223.30946224 29.00161231 223.30789733 C64.47467581 223.2184053 99.9477199 223.14976404 135.42087279 223.10823868 C139.67918231 223.10323579 143.9374916 223.09805851 148.19580078 223.09277344 C149.04356151 223.0917242 149.89132225 223.09067495 150.7647727 223.08959392 C164.49565704 223.07218373 178.22647447 223.04064266 191.9573191 223.00388882 C206.04407848 222.96649646 220.13080279 222.94426776 234.21760976 222.93614602 C242.91152443 222.9306547 251.60524995 222.91330441 260.2991064 222.88083413 C266.25899615 222.85970729 272.21878796 222.85329579 278.17871244 222.85849449 C281.61848814 222.86105915 285.0579331 222.85709908 288.49765015 222.8356781 C292.22677743 222.8158366 295.95508926 222.82054058 299.68423462 222.83148193 C300.77178689 222.81983057 301.85933915 222.8081792 302.97984755 222.79617476 C309.03458411 222.84433659 312.57570241 223.26762425 317.1875 227.3125 C318.578125 229.0234375 318.578125 229.0234375 319.4375 230.6875 C319.73140625 231.23148438 320.0253125 231.77546875 320.328125 232.3359375 C322.61837406 237.60351035 323.57622326 242.32823512 323.5625 248.0625 C323.56088867 248.76479736 323.55927734 249.46709473 323.55761719 250.19067383 C323.37015745 258.19171262 321.06625974 265.6118845 315.1875 271.3125 C311.51946025 273.10073738 308.57865289 273.56393886 304.51896191 273.56976891 C303.38183669 273.5762178 302.24471148 273.58266669 301.07312793 273.589311 C299.82859089 273.5862138 298.58405386 273.5831166 297.30180359 273.57992554 C295.96262713 273.58366269 294.62345285 273.58826448 293.28428203 273.59365618 C289.60548716 273.60589361 285.92678319 273.60562485 282.24797261 273.60326743 C278.27989431 273.60285945 274.31184522 273.61389662 270.34378052 273.62338257 C262.56994489 273.63999766 254.79613959 273.64549235 247.02228769 273.64660732 C240.70334398 273.64755757 234.38441028 273.65166667 228.06546974 273.65800858 C210.15083398 273.67562245 192.23622218 273.68484723 174.32157769 273.68334763 C173.35573293 273.68326772 172.38988817 273.6831878 171.39477539 273.68310547 C170.42775158 273.68302371 169.46072777 273.68294195 168.46440021 273.68285771 C152.79198791 273.68204479 137.11967172 273.70118361 121.44728722 273.7293822 C105.35570686 273.75810661 89.26417337 273.77192274 73.17256671 273.77019465 C64.13806622 273.76953059 55.10366648 273.77502984 46.06918907 273.79655075 C38.37700228 273.81475673 30.68496189 273.81911471 22.99276289 273.8055319 C19.0686932 273.79899924 15.14490444 273.79889557 11.22086143 273.8162384 C7.62633215 273.8319614 4.03230671 273.82911391 0.43778978 273.81167014 C-1.47378775 273.80714684 -3.38538084 273.82226374 -5.29689771 273.83814943 C-11.83843728 273.78559998 -17.58331176 273.61110488 -22.8125 269.3125 C-27.24735875 263.73879211 -27.3870378 258.88860147 -27.3271637 251.93746948 C-27.33410922 250.90596114 -27.34105475 249.8744528 -27.34821075 248.81168664 C-27.36647727 245.362355 -27.35621706 241.91371138 -27.34594727 238.46435547 C-27.35300574 235.98870326 -27.36175045 233.51305537 -27.37205505 231.03741455 C-27.39222646 225.01606249 -27.39357577 218.99497978 -27.38542951 212.97362147 C-27.3791244 208.08012449 -27.38027119 203.1866826 -27.38670158 198.29318619 C-27.38760324 197.5961872 -27.38850489 196.89918821 -27.38943387 196.18106804 C-27.3912851 194.76506342 -27.39314766 193.34905881 -27.39502143 191.93305422 C-27.4115893 178.66376324 -27.40288839 165.39457868 -27.38603585 152.1252941 C-27.37133032 139.98488723 -27.38598095 127.84472764 -27.41480602 115.7043526 C-27.44419299 103.23439299 -27.45517497 90.76454755 -27.44562382 78.29455483 C-27.44460127 76.88443067 -27.44360666 75.47430648 -27.4426403 74.06418228 C-27.44216391 73.37039497 -27.44168752 72.67660766 -27.4411967 71.96179648 C-27.43903215 67.0733423 -27.44883842 62.18499621 -27.46341133 57.29656601 C-27.48274773 50.71863344 -27.47586689 44.14108766 -27.45121193 37.5631485 C-27.44618978 35.14640917 -27.4497299 32.72963497 -27.46236038 30.31292343 C-27.47821523 27.01926791 -27.46341002 23.72714542 -27.44068909 20.43356323 C-27.45252482 19.47238331 -27.46436054 18.51120338 -27.47655493 17.52089679 C-27.41258779 12.97156021 -27.32548294 10.97060577 -24.45292568 7.2854023 C-16.9835159 1.70432655 -9.14704493 -0.06784923 0 0 Z " transform="translate(68.8125,26.6875)" style="fill: #8282FF;"/><path d="M0 0 C16.17 0 32.34 0 49 0 C49 10 49 10 48 11 C45.13530675 11.07330331 42.30106326 11.09217831 39.4375 11.0625 C36.653125 11.041875 33.86875 11.02125 31 11 C31 17.27 31 23.54 31 30 C47.17 30 63.34 30 80 30 C80 57.39 80 84.78 80 113 C63.83 113 47.66 113 31 113 C31.33 120.92 31.66 128.84 32 137 C41.9 137.495 41.9 137.495 52 138 C52 141.3 52 144.6 52 148 C44.32788327 148.02463993 36.65578935 148.04283123 28.98364258 148.05493164 C26.37133381 148.05997377 23.75902789 148.06680725 21.14672852 148.07543945 C17.40119732 148.08751036 13.65570328 148.09322935 9.91015625 148.09765625 C8.73413345 148.10281754 7.55811066 148.10797882 6.34645081 148.11329651 C5.26540573 148.11337204 4.18436066 148.11344757 3.07055664 148.11352539 C2.11347305 148.115746 1.15638947 148.11796661 0.17030334 148.12025452 C-2 148 -2 148 -3 147 C-3 144.03 -3 141.06 -3 138 C6.9 137.505 6.9 137.505 17 137 C16.98839844 135.51886719 16.97679687 134.03773438 16.96484375 132.51171875 C16.95546498 130.57031376 16.94636487 128.62890741 16.9375 126.6875 C16.92912109 125.71103516 16.92074219 124.73457031 16.91210938 123.72851562 C16.90888672 122.79072266 16.90566406 121.85292969 16.90234375 120.88671875 C16.89710693 120.02264404 16.89187012 119.15856934 16.88647461 118.26831055 C17 116 17 116 18 113 C-44.7 113 -107.4 113 -172 113 C-172 85.61 -172 58.22 -172 30 C-109.3 30 -46.6 30 18 30 C17.67 29.01 17.34 28.02 17 27 C16.90514218 24.8350098 16.87011923 22.66706177 16.875 20.5 C16.87242187 19.3553125 16.86984375 18.210625 16.8671875 17.03125 C17 14 17 14 18 11 C12.06 11 6.12 11 0 11 C0 7.37 0 3.74 0 0 Z " transform="translate(290,81)" style="fill: #8D8DFF;"/><path d="M0 0 C58.08 0 116.16 0 176 0 C176 18.48 176 36.96 176 56 C117.92 56 59.84 56 0 56 C0 37.52 0 19.04 0 0 Z " transform="translate(132,125)" style="fill: #000000;"/><path d="M0 0 C11.55 0 23.1 0 35 0 C35 18.15 35 36.3 35 55 C23.45 55 11.9 55 0 55 C0 36.85 0 18.7 0 0 Z " transform="translate(321,126)" style="fill: #000000;"/></svg>